<svg xmlns="http://www.w3.org/2000/svg" width="18" height="18" viewBox="0 0 18 18">
  <defs>
    <style>
      .cls-1 {
        fill: #fff;
        fill-rule: evenodd;
      }
    </style>
  </defs>
  <path class="cls-1" d="M14.235,11.149a1.776,1.776,0,0,0-1.286-.589,1.833,1.833,0,0,0-1.3.585l-1.2,1.2c-0.1-.053-0.2-0.1-0.293-0.151-0.137-.069-0.266-0.133-0.377-0.2A13.051,13.051,0,0,1,6.644,9.139,7.694,7.694,0,0,1,5.616,7.521c0.312-.285.6-0.582,0.883-0.866,0.107-.106.213-0.216,0.32-0.323a1.741,1.741,0,0,0,0-2.629L5.78,2.667C5.662,2.548,5.54,2.427,5.426,2.305,5.2,2.069,4.958,1.827,4.711,1.6a1.8,1.8,0,0,0-1.275-.558A1.865,1.865,0,0,0,2.142,1.6l-0.008.007-1.294,1.3A2.777,2.777,0,0,0,.015,4.676,6.651,6.651,0,0,0,.5,7.494a16.349,16.349,0,0,0,2.911,4.847A17.9,17.9,0,0,0,9.376,17a9.294,9.294,0,0,0,3.348.987c0.08,0,.164.008,0.24,0.008a2.868,2.868,0,0,0,2.2-.942c0-.007.011-0.011,0.015-0.019a8.614,8.614,0,0,1,.666-0.687c0.163-.156.331-0.32,0.495-0.49a1.9,1.9,0,0,0,.575-1.315,1.824,1.824,0,0,0-.586-1.3Zm1.362,4s0,0,0,0c-0.148.159-.3,0.3-0.464,0.463a9.977,9.977,0,0,0-.734.76,1.835,1.835,0,0,1-1.431.6c-0.057,0-.118,0-0.175,0a8.27,8.27,0,0,1-2.968-.889,16.9,16.9,0,0,1-5.616-4.391,15.407,15.407,0,0,1-2.74-4.554,5.416,5.416,0,0,1-.426-2.378,1.742,1.742,0,0,1,.525-1.128l1.3-1.3a0.864,0.864,0,0,1,.578-0.27A0.816,0.816,0,0,1,4,2.332L4.011,2.343c0.232,0.216.453,0.44,0.685,0.68,0.118,0.121.24,0.243,0.362,0.368L6.1,4.429a0.724,0.724,0,0,1,0,1.178c-0.11.111-.217,0.22-0.327,0.327-0.32.326-.624,0.63-0.955,0.927a0.082,0.082,0,0,0-.019.019,0.774,0.774,0,0,0-.2.862L4.608,7.775a8.311,8.311,0,0,0,1.229,2l0,0a13.955,13.955,0,0,0,3.379,3.07,5.1,5.1,0,0,0,.468.254c0.137,0.068.266,0.133,0.377,0.2,0.015,0.007.03,0.019,0.046,0.026a0.827,0.827,0,0,0,.377.1,0.812,0.812,0,0,0,.578-0.262l1.3-1.3a0.861,0.861,0,0,1,.575-0.285,0.776,0.776,0,0,1,.548.277L13.5,11.866l2.1,2.093A0.75,0.75,0,0,1,15.6,15.149ZM9.729,4.281a4.892,4.892,0,0,1,3.988,3.981,0.51,0.51,0,0,0,.506.426,0.613,0.613,0,0,0,.088-0.008,0.513,0.513,0,0,0,.422-0.592A5.916,5.916,0,0,0,9.908,3.271a0.516,0.516,0,0,0-.594.418A0.507,0.507,0,0,0,9.729,4.281Zm8.264,3.658A9.742,9.742,0,0,0,10.049.007a0.512,0.512,0,1,0-.167,1.011,8.7,8.7,0,0,1,7.1,7.088,0.51,0.51,0,0,0,.506.426,0.609,0.609,0,0,0,.087-0.008A0.5,0.5,0,0,0,17.994,7.939Z"/>
</svg>
