<svg xmlns="http://www.w3.org/2000/svg" width="18" height="18" viewBox="0 0 18 18">
  <defs>
    <style>
      .cls-1 {
        fill: #fff;
        fill-rule: evenodd;
      }
    </style>
  </defs>
  <path id="Shape_1_copy" data-name="Shape 1 copy" class="cls-1" d="M15.363,2.635A9,9,0,1,0,2.637,15.36a9,9,0,0,0,10.564,1.6,0.663,0.663,0,1,0-.62-1.173A7.673,7.673,0,1,1,16.672,9a4.208,4.208,0,0,1-.734,2.664,1.707,1.707,0,0,1-1.317.723,1.469,1.469,0,0,1-1.342-1.719V5.5a0.664,0.664,0,1,0-1.328,0V5.789a4.554,4.554,0,1,0-3.227,7.764,4.427,4.427,0,0,0,1.306-.192,0.664,0.664,0,0,0-.38-1.273A3.227,3.227,0,1,1,8.723,5.77,3.229,3.229,0,0,1,11.951,9v1.667a2.774,2.774,0,0,0,2.67,3.047,3.028,3.028,0,0,0,2.364-1.235A5.607,5.607,0,0,0,18,9,8.937,8.937,0,0,0,15.363,2.635Z"/>
</svg>
