<svg xmlns="http://www.w3.org/2000/svg" width="14" height="18" viewBox="0 0 14 18">
  <defs>
    <style>
      .cls-1 {
        fill: #fff;
        fill-rule: evenodd;
      }
    </style>
  </defs>
  <path class="cls-1" d="M7,0A7.117,7.117,0,0,0,0,7.215,7.316,7.316,0,0,0,.124,8.569c0,0.026.018,0.106,0.048,0.241A7.247,7.247,0,0,0,.64,10.233a20.142,20.142,0,0,0,6.049,7.651,0.484,0.484,0,0,0,.622,0,20.183,20.183,0,0,0,6.049-7.651,7.181,7.181,0,0,0,.468-1.423c0.029-.136.044-0.215,0.047-0.241A7.64,7.64,0,0,0,14,7.215,7.128,7.128,0,0,0,7,0Zm5.9,8.391c0,0.007,0,.015,0,0.022s-0.015.076-.033,0.163V8.584a6.114,6.114,0,0,1-.406,1.23s0,0.011-.007.015a18.8,18.8,0,0,1-5.449,7,18.808,18.808,0,0,1-5.449-7s0-.011-0.007-0.015a6.528,6.528,0,0,1-.406-1.23V8.577C1.112,8.49,1.1,8.433,1.1,8.414s0-.015,0-0.026a6.333,6.333,0,0,1-.11-1.176A6.113,6.113,0,0,1,7,1.016a6.113,6.113,0,0,1,6.009,6.195A6.328,6.328,0,0,1,12.9,8.392ZM7,2.714a4.52,4.52,0,0,0-4.442,4.58A4.52,4.52,0,0,0,7,11.874a4.52,4.52,0,0,0,4.443-4.58A4.52,4.52,0,0,0,7,2.714Zm0,8.141A3.513,3.513,0,0,1,3.542,7.294,3.516,3.516,0,0,1,7,3.732a3.516,3.516,0,0,1,3.455,3.562A3.514,3.514,0,0,1,7,10.856Z"/>
</svg>
