<svg xmlns="http://www.w3.org/2000/svg" width="22" height="22" viewBox="0 0 22 22">
  <path id="Rounded_Rectangle_523_copy_8" data-name="Rounded Rectangle 523 copy 8" d="M2,0H4A2,2,0,0,1,6,2V4A2,2,0,0,1,4,6H2A2,2,0,0,1,0,4V2A2,2,0,0,1,2,0Zm8,0h2a2,2,0,0,1,2,2V4a2,2,0,0,1-2,2H10A2,2,0,0,1,8,4V2A2,2,0,0,1,10,0Zm8,0h2a2,2,0,0,1,2,2V4a2,2,0,0,1-2,2H18a2,2,0,0,1-2-2V2A2,2,0,0,1,18,0ZM2,8H4a2,2,0,0,1,2,2v2a2,2,0,0,1-2,2H2a2,2,0,0,1-2-2V10A2,2,0,0,1,2,8Zm8,0h2a2,2,0,0,1,2,2v2a2,2,0,0,1-2,2H10a2,2,0,0,1-2-2V10A2,2,0,0,1,10,8Zm8,0h2a2,2,0,0,1,2,2v2a2,2,0,0,1-2,2H18a2,2,0,0,1-2-2V10A2,2,0,0,1,18,8ZM2,16H4a2,2,0,0,1,2,2v2a2,2,0,0,1-2,2H2a2,2,0,0,1-2-2V18A2,2,0,0,1,2,16Zm8,0h2a2,2,0,0,1,2,2v2a2,2,0,0,1-2,2H10a2,2,0,0,1-2-2V18A2,2,0,0,1,10,16Zm8,0h2a2,2,0,0,1,2,2v2a2,2,0,0,1-2,2H18a2,2,0,0,1-2-2V18A2,2,0,0,1,18,16Z"/>
</svg>
