<svg id="Logo" xmlns="http://www.w3.org/2000/svg" width="145" height="30" viewBox="0 0 145 30">
  <defs>
    <style>
      .cls-1 {
        font-size: 22px;
        fill: #fff;
        font-family: Ubuntu;
        font-weight: 500;
      }

      .cls-2, .cls-3 {
        fill: #1fbdd3;
      }

      .cls-3 {
        fill-rule: evenodd;
      }
    </style>
  </defs>
  <text id="Pixel_eCom" data-name="Pixel eCom" class="cls-1" x="32.284" y="23.799">Pixel <tspan class="cls-2">eCom</tspan></text>
  <path id="Shape_1_copy_4" data-name="Shape 1 copy 4" class="cls-3" d="M22.767,7.465h-2.9V7.281A7.124,7.124,0,0,0,12.929,0,7.124,7.124,0,0,0,5.994,7.281V7.465h-2.9L1.86,26.211H24ZM12.929,0.894a6.1,6.1,0,0,1,5.62,3.94,6.572,6.572,0,0,0-11.241,0A6.112,6.112,0,0,1,12.929.894ZM7.276,7.465A5.87,5.87,0,0,1,12.93,2.681a5.867,5.867,0,0,1,5.654,4.784H7.276Zm0,12.429L8.052,23.21H19.2l0,0.021a0.737,0.737,0,0,1,.5.219,0.672,0.672,0,0,1,0,.955,0.747,0.747,0,0,1-.5.227H8a1.3,1.3,0,0,1-.77-0.291,1.154,1.154,0,0,1-.406-0.663h0L4.514,12.464H0.656A0.62,0.62,0,0,1,0,11.854,0.646,0.646,0,0,1,.656,11.21H5.033a0.5,0.5,0,0,1,.156.018,0.817,0.817,0,0,1,.291.155,0.828,0.828,0,0,1,.19.228,1.115,1.115,0,0,1,.135.472l0.265,1.339H20.687a1.1,1.1,0,0,1,.883.395,1.15,1.15,0,0,1,.262.73,1.162,1.162,0,0,1-.024.235l0,0.01-1.359,4.247a1.193,1.193,0,0,1-.394.656,0.673,0.673,0,0,1-.543.2H19.355m-0.31-1.263,1.419-3.955H6.294l0.828,3.955m-0.3,5.048h0Zm2.824,3.636a1.343,1.343,0,1,1-1.287,1.342A1.317,1.317,0,0,1,9.649,27.315Zm0,1.935a0.593,0.593,0,1,0-.568-0.593A0.582,0.582,0,0,0,9.649,29.25Zm8.265-1.935a1.343,1.343,0,1,1-1.287,1.342A1.317,1.317,0,0,1,17.914,27.315Zm0,1.935a0.593,0.593,0,1,0-.568-0.593A0.582,0.582,0,0,0,17.914,29.25Z"/>
</svg>
