<svg xmlns="http://www.w3.org/2000/svg" width="13" height="14" viewBox="0 0 13 14">
  <defs>
    <style>
      .cls-1 {
        fill: #909090;
        fill-rule: evenodd;
      }
    </style>
  </defs>
  <path id="Quick_View" data-name="Quick View" class="cls-1" d="M12.795,12.737L9.592,9.28a5.75,5.75,0,0,0,1.275-3.625A5.546,5.546,0,0,0,5.433.016,5.546,5.546,0,0,0,0,5.655a5.546,5.546,0,0,0,5.434,5.639,5.246,5.246,0,0,0,3.113-1.02l3.227,3.483a0.691,0.691,0,0,0,1,.021A0.757,0.757,0,0,0,12.795,12.737ZM5.433,1.487A4.1,4.1,0,0,1,9.449,5.655,4.1,4.1,0,0,1,5.433,9.823,4.1,4.1,0,0,1,1.416,5.655,4.1,4.1,0,0,1,5.433,1.487Z"/>
</svg>
