<svg xmlns="http://www.w3.org/2000/svg" width="30" height="25" viewBox="0 0 30 25"> <defs> <style>.cls-1{fill: #191919; fill-rule: evenodd;}</style> </defs> <path id="Forma_1" data-name="Forma 1" class="cls-1" d="M29.062,16.068a0.917,0.917,0,0,0-.937.893v6.252H1.875V12.5H12.187a0.894,0.894,0,1,0,0-1.786H1.875V7.137H12.187a0.894,0.894,0,1,0,0-1.786H1.875A1.833,1.833,0,0,0,0,7.137V23.213A1.833,1.833,0,0,0,1.875,25h26.25A1.833,1.833,0,0,0,30,23.213V16.961A0.917,0.917,0,0,0,29.062,16.068Zm-20.625,0H4.687a0.894,0.894,0,1,0,0,1.787h3.75A0.894,0.894,0,1,0,8.437,16.068ZM29.432,2.743L22.869,0.064a1,1,0,0,0-.741,0L15.566,2.743A0.894,0.894,0,0,0,15,3.565V7.137c0,4.914,1.907,7.786,7.033,10.6a0.98,0.98,0,0,0,.934,0C28.093,14.931,30,12.058,30,7.137V3.565A0.893,0.893,0,0,0,29.432,2.743ZM28.125,7.137c0,4.125-1.433,6.4-5.625,8.788-4.192-2.4-5.625-4.669-5.625-8.788V4.154l5.625-2.3,5.625,2.3V7.137ZM25.9,5.546a0.976,0.976,0,0,0-1.318.139L21.634,9.2,20.468,7.536a0.969,0.969,0,0,0-1.3-.248,0.868,0.868,0,0,0-.261,1.238l1.875,2.68a0.956,0.956,0,0,0,.741.4h0.039a0.957,0.957,0,0,0,.733-0.335L26.046,6.8A0.865,0.865,0,0,0,25.9,5.546Z"/></svg>