<svg width="30" height="29" viewBox="0 0 30 29"> <defs> <style>.cls-1{fill: #191919; fill-rule: evenodd;}</style> </defs> <path id="Shape_858_copy" data-name="Shape 858 copy" class="cls-1" d="M15.432,0A14.5,14.5,0,0,0,5.66,3.745l-1.6-1.6A1.875,1.875,0,0,0,.886,3.155L0.026,8.191a1.867,1.867,0,0,0,1.842,2.177,1.93,1.93,0,0,0,.318-0.027l5.06-.857a1.861,1.861,0,0,0,1.01-3.155L6.8,4.877A12.929,12.929,0,1,1,15.432,27.4H15.406a0.8,0.8,0,1,0,0,1.6h0.027A14.5,14.5,0,1,0,15.432,0ZM7.185,7.727a0.257,0.257,0,0,1-.209.181l-5.06.856a0.285,0.285,0,0,1-.048,0,0.267,0.267,0,0,1-.2-0.1,0.256,0.256,0,0,1-.058-0.215L2.469,3.423A0.265,0.265,0,0,1,2.738,3.2a0.249,0.249,0,0,1,.183.079l4.2,4.179A0.255,0.255,0,0,1,7.185,7.727Zm-2,14.677a0.806,0.806,0,0,0-1.126-.143,0.8,0.8,0,0,0-.143,1.122L3.955,23.43a0.8,0.8,0,0,0,1.266-.983Zm6.4,4.421-0.054-.017a0.8,0.8,0,1,0-.481,1.525l0.059,0.019a0.821,0.821,0,0,0,.238.036A0.8,0.8,0,0,0,11.589,26.824ZM8.071,25.119l-0.045-.031a0.805,0.805,0,0,0-1.118.2,0.8,0.8,0,0,0,.2,1.113l0.051,0.035A0.8,0.8,0,1,0,8.071,25.119ZM3.29,19.025a0.8,0.8,0,0,0-1.5.561L1.8,19.611a0.8,0.8,0,0,0,1.5-.561Zm17-5.75a0.4,0.4,0,0,0-.405-0.4H19.522a0.4,0.4,0,1,0,0,.806h0.364A0.4,0.4,0,0,0,20.292,13.275Zm0.324-2.823H18.75A1.582,1.582,0,0,0,18.5,8.5a1.626,1.626,0,0,0-1.155-.473,1.582,1.582,0,0,0-1.128.473,2.642,2.642,0,0,0-.444.615,2.643,2.643,0,0,0-.441-0.613,1.6,1.6,0,0,0-1.15-.473,1.61,1.61,0,0,0-1.62,1.613,1.593,1.593,0,0,0,.219.806H11.383a1.375,1.375,0,0,0-1.377,1.371v0.968a0.911,0.911,0,0,0,.486.792V18.6a1.5,1.5,0,0,0,1.5,1.371H20.13A1.375,1.375,0,0,0,21.507,18.6V13.586a0.892,0.892,0,0,0,.486-0.794V11.823A1.376,1.376,0,0,0,20.615,10.452Zm-5.264,3.226v5.484H11.991A0.7,0.7,0,0,1,11.3,18.6v-4.92h4.049ZM14.177,8.827a0.794,0.794,0,0,1,.566.231,2.443,2.443,0,0,1,.584,1.369h-1.41L13.9,10.418l-0.017-.01a0.873,0.873,0,0,1-.266-0.2L13.612,10.2a0.8,0.8,0,0,1,0-1.138A0.794,0.794,0,0,1,14.177,8.827ZM16.2,10.464a2.428,2.428,0,0,1,.584-1.394,0.807,0.807,0,1,1,1.143,1.138,1.965,1.965,0,0,1-.3.229,0.348,0.348,0,0,0-.04.026H16.2Zm-0.036,3.214h2.267a0.4,0.4,0,1,0,0-.806H16.162V11.944a0.405,0.405,0,0,0-.81,0v0.927H10.9a0.082,0.082,0,0,1-.081-0.081V11.823a0.566,0.566,0,0,1,.567-0.565h9.232a0.566,0.566,0,0,1,.567.565v0.968a0.087,0.087,0,0,1-.066.084l-0.031.009a0.4,0.4,0,0,0-.389.4V18.61a0.566,0.566,0,0,1-.567.564H16.162v-5.5Z"/></svg>