<svg xmlns="http://www.w3.org/2000/svg" width="42" height="20" viewBox="0 0 42 20"> <defs> <style>.cls-1{fill: #191919; fill-rule: evenodd;}</style> </defs> <path class="cls-1" d="M41.163,17.69H39.235a3.171,3.171,0,0,1-6.1,0H21.968a3.171,3.171,0,0,1-6.1,0H14.118a0.833,0.833,0,0,1-.837-0.829V16.018H8.438a0.829,0.829,0,1,1,0-1.659h4.844V3.607H5.235a0.829,0.829,0,1,1,0-1.659h8.047V0.829A0.833,0.833,0,0,1,14.118,0H31.4a0.833,0.833,0,0,1,.837.83V4.234h4.057a0.839,0.839,0,0,1,.629.283l4.872,5.514a0.826,0.826,0,0,1,.207.546v6.284A0.832,0.832,0,0,1,41.163,17.69Zm-22.247.65a1.479,1.479,0,1,0-1.491-1.479A1.487,1.487,0,0,0,18.916,18.34ZM30.561,1.658H14.955V16.032h0.91a3.172,3.172,0,0,1,6.1,0h8.593V1.658ZM36.183,18.34a1.479,1.479,0,1,0-1.492-1.479A1.487,1.487,0,0,0,36.183,18.34Zm4.143-7.45-4.415-5H32.234V16.032h0.9a3.172,3.172,0,0,1,6.1,0h1.091V10.89ZM10.639,8.9a0.833,0.833,0,0,1-.837.83H0.837a0.83,0.83,0,1,1,0-1.659H9.8A0.833,0.833,0,0,1,10.639,8.9Zm-5.4,5.46H5.682a0.83,0.83,0,1,1,0,1.659H5.235A0.83,0.83,0,1,1,5.235,14.359Z"/></svg>
