<svg xmlns="http://www.w3.org/2000/svg" width="23" height="30" viewBox="0 0 23 30"> <defs> <style>.cls-1{fill: #191919; fill-rule: evenodd;}</style> </defs> <path id="Forma_1" data-name="Forma 1" class="cls-1" d="M2.073,13.734h1.66a8.2,8.2,0,0,0,14.169,2.5h2.135a0.718,0.718,0,0,0,.717-0.718V13.734h0.323a1.413,1.413,0,0,0,1.411-1.412V8.711a1.414,1.414,0,0,0-1.146-1.387,8.9,8.9,0,0,0-3.369-5.263A10.605,10.605,0,0,0,11.506,0C6.538,0,2.619,2.945,1.662,7.36a1.414,1.414,0,0,0-1,1.351v3.611A1.413,1.413,0,0,0,2.073,13.734ZM2.1,12.3V8.735H3.643A8.241,8.241,0,0,0,3.387,12.3H2.1Zm9.409,5.574A6.785,6.785,0,1,1,17.175,14.8H11.09a0.718,0.718,0,0,0,0,1.436h4.827A6.74,6.74,0,0,1,11.506,17.873ZM19.32,14.8H18.83a8.166,8.166,0,0,0,.448-1.064H19.32V14.8h0Zm1.734-2.5H19.625a8.241,8.241,0,0,0-.256-3.564h1.685V12.3h0ZM11.506,1.435c4.134,0,7.406,2.329,8.353,5.863H18.786a8.2,8.2,0,0,0-14.559,0H3.152C4.1,3.766,7.378,1.435,11.506,1.435Zm7.365,18.189H4.129A4.136,4.136,0,0,0,0,23.757v5.524a0.717,0.717,0,1,0,1.434,0V23.757a2.7,2.7,0,0,1,2.694-2.7H18.871a2.7,2.7,0,0,1,2.694,2.7v5.524a0.717,0.717,0,1,0,1.434,0V23.757A4.136,4.136,0,0,0,18.871,19.624Z"/></svg>