<svg xmlns="http://www.w3.org/2000/svg" width="20" height="18" viewBox="0 0 20 18"> <defs> <style>.cls-1{fill: #fff; fill-rule: evenodd;}</style> </defs> <path id="Forma_1" data-name="Forma 1" class="cls-1" d="M14.54,0.537A6.48,6.48,0,0,0,9.952,2.429,6.48,6.48,0,0,0,5.365.537C2.218,0.537,0,3.235,0,6.419,0,11.342,5.073,15.1,9.6,17.348a0.8,0.8,0,0,0,.711,0c4.526-2.245,9.6-6,9.6-10.929C19.9,3.241,17.692.537,14.54,0.537Zm-4.587,15.3c-3.815-1.947-8.4-5.274-8.4-9.415,0-2.28,1.479-4.38,3.81-4.38A4.949,4.949,0,0,1,9.3,4a0.788,0.788,0,0,0,1.306,0A4.958,4.958,0,0,1,14.54,2.039c2.332,0,3.81,2.1,3.81,4.38C18.349,10.558,13.759,13.891,9.952,15.834Z"/></svg>