<svg xmlns="http://www.w3.org/2000/svg" width="19" height="18" viewBox="0 0 19 18">
  <defs>
    <style>
      .cls-1 {
        fill: #fff;
        stroke: #fff;
        stroke-width: 0.6px;
        fill-rule: evenodd;
      }
    </style>
  </defs>
  <path id="Forma_1" data-name="Forma 1" class="cls-1" d="M17.466,11.053a6.215,6.215,0,0,0,1.226-3.682c0-3.764-3.481-6.826-7.761-6.826A7.963,7.963,0,0,0,3.963,4.368,6.6,6.6,0,0,0,.783,9.874a6.211,6.211,0,0,0,1.226,3.681,5.724,5.724,0,0,1-1.138,3.4,0.287,0.287,0,0,0-.056.337,0.3,0.3,0,0,0,.267.161,0.27,0.27,0,0,0,.042,0A14.087,14.087,0,0,0,5.4,16.114a8.608,8.608,0,0,0,3.147.586,8.144,8.144,0,0,0,6.223-2.752,15.326,15.326,0,0,0,3.585,1l0.042,0a0.3,0.3,0,0,0,.267-0.161,0.287,0.287,0,0,0-.056-0.336A5.718,5.718,0,0,1,17.466,11.053ZM8.543,16.117a8.029,8.029,0,0,1-2.5-.393c1-.609,1-0.657,1-0.822A0.3,0.3,0,0,0,6.9,14.651a0.3,0.3,0,0,0-.4.079c-0.147.112-.747,0.488-1.282,0.81h0a12.025,12.025,0,0,1-3.45,1.2A8.265,8.265,0,0,0,2.613,13.5a0.286,0.286,0,0,0-.057-0.2A5.659,5.659,0,0,1,1.38,9.874a6.047,6.047,0,0,1,3.037-5.1c0.117-.072.235-0.141,0.356-0.207L4.85,4.527C4.976,4.46,5.1,4.4,5.235,4.34l0.141-.063q0.2-.086.4-0.16c0.047-.018.1-0.033,0.144-0.05q0.158-.054.319-0.1c0.05-.015.1-0.031,0.152-0.045q0.209-.058.423-0.1l0.154-.031c0.126-.024.252-0.046,0.379-0.065l0.1-.015c0.156-.021.313-0.036,0.47-0.048l0.133-.008c0.16-.01.321-0.017,0.483-0.017H8.544c3.7,0,6.759,2.462,7.127,5.605a5.664,5.664,0,0,1,.036.638c0,0.141-.007.281-0.018,0.42,0,0.037-.006.073-0.01,0.11-0.012.129-.028,0.258-0.05,0.385,0,0.011,0,.022,0,0.033-0.023.133-.053,0.265-0.087,0.4-0.01.04-.021,0.08-0.032,0.12-0.032.116-.067,0.231-0.107,0.344-0.01.03-.021,0.059-0.031,0.088-0.041.111-.086,0.222-0.134,0.331-0.019.043-.039,0.087-0.059,0.129-0.054.114-.11,0.228-0.172,0.339-0.017.032-.036,0.063-0.055,0.094q-0.081.14-.17,0.277c-0.026.04-.052,0.08-0.079,0.12-0.074.107-.15,0.214-0.232,0.318A7.5,7.5,0,0,1,8.543,16.117Zm6.595-2.644c0.013-.018.024-0.038,0.036-0.056,0.069-.1.134-0.2,0.2-0.3,0.037-.059.071-0.121,0.106-0.181s0.071-.125.1-0.188,0.064-.122.095-0.183c0.043-.088.084-0.178,0.123-0.268,0.031-.072.06-0.145,0.089-0.218s0.062-.163.09-0.246c0.019-.056.037-0.112,0.054-0.168,0.028-.091.054-0.183,0.078-0.275,0.011-.042.023-0.083,0.033-0.125,0.031-.131.057-0.263,0.079-0.4,0.007-.042.012-0.083,0.018-0.124,0.015-.1.027-0.208,0.037-0.314,0-.042.008-0.084,0.011-0.127,0.01-.141.017-0.283,0.017-0.427,0-3.764-3.481-6.826-7.761-6.826H8.494c-0.125,0-.249,0-0.373.009-0.058,0-.115.008-0.173,0.011C7.866,3.076,7.784,3.081,7.7,3.089S7.567,3.1,7.5,3.112s-0.137.016-.2,0.026-0.149.023-.223,0.035L6.9,3.2c-0.08.015-.16,0.032-0.239,0.049l-0.145.034c-0.086.02-.172,0.042-0.258,0.064l-0.09.026a8.281,8.281,0,0,0-.931.325l-0.063.026c-0.027.011-.055,0.021-0.082,0.033a7.571,7.571,0,0,1,5.842-2.633c3.95,0,7.164,2.8,7.164,6.243A5.659,5.659,0,0,1,16.919,10.8a0.286,0.286,0,0,0-.057.2,8.246,8.246,0,0,0,.844,3.246A14.167,14.167,0,0,1,15.138,13.473Z"/>
</svg>
