<svg xmlns="http://www.w3.org/2000/svg" width="17" height="14" viewBox="0 0 17 14">
  <defs>
    <style>
      .cls-1 {
        fill: #909090;
        fill-rule: evenodd;
      }
    </style>
  </defs>
  <path id="Wishlist" class="cls-1" d="M12.388-.014A4.658,4.658,0,0,0,8.5,2.059,4.66,4.66,0,0,0,4.612-.014,4.555,4.555,0,0,0,0,4.471a6.883,6.883,0,0,0,1.337,3.9A14.264,14.264,0,0,0,4.15,11.31a23.228,23.228,0,0,0,4.028,2.607,0.734,0.734,0,0,0,.322.075,0.745,0.745,0,0,0,.326-0.076A23.417,23.417,0,0,0,12.85,11.31a14.278,14.278,0,0,0,2.813-2.944A6.883,6.883,0,0,0,17,4.471,4.555,4.555,0,0,0,12.388-.014Zm3.163,4.485c0,4-5.718,7.3-7.051,8.012-1.333-.713-7.051-4.009-7.051-8.012A3.12,3.12,0,0,1,4.612,1.4,3.121,3.121,0,0,1,7.775,4.471a0.725,0.725,0,0,0,1.449,0A3.165,3.165,0,0,1,15.551,4.471Z"/>
</svg>
